<?xml version="1.0" encoding="utf-8"?>
<!-- Generator: Adobe Illustrator 26.0.3, SVG Export Plug-In . SVG Version: 6.00 Build 0)  -->
<svg version="1.1" id="Слой_1" xmlns="http://www.w3.org/2000/svg" xmlns:xlink="http://www.w3.org/1999/xlink" x="0px" y="0px"
	 viewBox="0 0 24 24" style="enable-background:new 0 0 24 24;" xml:space="preserve">
<style type="text/css">
	.st0{fill:#878787;stroke:#878787;stroke-width:0.25;stroke-miterlimit:10;}
	.st1{fill:#FFFFFF;stroke:#878787;stroke-width:0.25;stroke-miterlimit:10;}
</style>
<path class="st0" d="M8.6,7.4C8.3,7,8.3,6.4,8.6,6c0.4-0.4,1-0.4,1.4,0l5.7,5.7c0.4,0.4,0.4,1,0,1.4l-5.7,5.7c0,0,0,0,0,0
	c-0.4,0.4-1,0.4-1.4,0s-0.4-1,0-1.4l4.9-4.9L8.6,7.4z"/>
<path class="st1" d="M8.6,7c-0.4-0.4-0.4-1,0-1.4c0.4-0.4,1-0.4,1.4,0l5.7,5.7c0.4,0.4,0.4,1,0,1.4l-5.7,5.7c0,0,0,0,0,0
	c-0.4,0.4-1,0.4-1.4,0c-0.4-0.4-0.4-1,0-1.4l4.9-4.9L8.6,7z"/>
</svg>
