<?xml version="1.0" encoding="utf-8"?>
<!-- Generator: Adobe Illustrator 26.0.3, SVG Export Plug-In . SVG Version: 6.00 Build 0)  -->
<svg version="1.1" id="Слой_1" xmlns="http://www.w3.org/2000/svg" xmlns:xlink="http://www.w3.org/1999/xlink" x="0px" y="0px"
	 viewBox="0 0 24 24" style="enable-background:new 0 0 24 24;" xml:space="preserve">
<style type="text/css">
	.st0{fill:#878787;stroke:#878787;stroke-width:0.25;stroke-miterlimit:10;}
	.st1{fill:#FFFFFF;stroke:#878787;stroke-width:0.25;stroke-miterlimit:10;}
</style>
<path class="st0" d="M10.8,12.4l4.9,4.9c0.4,0.4,0.4,1,0,1.4s-1,0.4-1.4,0c0,0,0,0,0,0l-5.7-5.7c-0.4-0.4-0.4-1,0-1.4L14.3,6
	c0.4-0.4,1-0.4,1.4,0c0.4,0.4,0.4,1,0,1.4L10.8,12.4z"/>
<path class="st1" d="M10.8,12l4.9,5c0.4,0.4,0.4,1,0,1.4c-0.4,0.4-1,0.4-1.4,0c0,0,0,0,0,0l-5.7-5.7c-0.4-0.4-0.4-1,0-1.4l5.7-5.7
	c0.4-0.4,1-0.4,1.4,0c0.4,0.4,0.4,1,0,1.4L10.8,12z"/>
</svg>
